inDegrees=no
num_controls=7
num_derivatives=13
num_iterations=144
num_multipliers=7
num_parameters=0
num_slacks=7
num_states=26
objective=5.975698
objective_accelerations=0.440393
objective_balance=0.048251
objective_effort=0.450785
objective_height=4.986139
objective_ligament=0.050129
solver_duration=1300.562232
status=Solve_Succeeded
success=true
DataType=double
version=3
OpenSimVersion=4.4-2022-07-23-0e9fedc
endheader
time	/jointset/ground_pelvis/pelvis_tilt/value	/jointset/ground_pelvis/pelvis_tx/value	/jointset/ground_pelvis/pelvis_ty/value	/jointset/hip_r/hip_flexion_r/value	/jointset/hip_r/hip_adduction_r/value	/jointset/hip_r/hip_rotation_r/value	/jointset/back/lumbar_extension/value	/jointset/patellofemoral_r/patellar_flexion_r/value	/jointset/knee_r/knee_flexion_r/value	/jointset/knee_r/knee_adduction_r/value	/jointset/knee_r/knee_rotation_r/value	/jointset/ankle_r/ankle_angle_r/value	/jointset/subtalar_r/subtalar_angle_r/value	/jointset/ground_pelvis/pelvis_tilt/speed	/jointset/ground_pelvis/pelvis_tx/speed	/jointset/ground_pelvis/pelvis_ty/speed	/jointset/hip_r/hip_flexion_r/speed	/jointset/hip_r/hip_adduction_r/speed	/jointset/hip_r/hip_rotation_r/speed	/jointset/back/lumbar_extension/speed	/jointset/patellofemoral_r/patellar_flexion_r/speed	/jointset/knee_r/knee_flexion_r/speed	/jointset/knee_r/knee_adduction_r/speed	/jointset/knee_r/knee_rotation_r/speed	/jointset/ankle_r/ankle_angle_r/speed	/jointset/subtalar_r/subtalar_angle_r/speed	/forceset/tau_hip_flexion_r	/forceset/tau_hip_adduction_r	/forceset/tau_hip_rotation_r	/forceset/tau_knee_flexion_r	/forceset/tau_ankle_angle_r	/forceset/tau_subtalar_angle_r	/forceset/tau_lumbar_extension	lambda_cid13_p0	lambda_cid14_p0	lambda_cid14_p1	lambda_cid14_p2	lambda_cid14_p3	lambda_cid14_p4	lambda_cid14_p5	/jointset/ground_pelvis/pelvis_tilt/accel	/jointset/ground_pelvis/pelvis_tx/accel	/jointset/ground_pelvis/pelvis_ty/accel	/jointset/hip_r/hip_flexion_r/accel	/jointset/hip_r/hip_adduction_r/accel	/jointset/hip_r/hip_rotation_r/accel	/jointset/back/lumbar_extension/accel	/jointset/patellofemoral_r/patellar_flexion_r/accel	/jointset/knee_r/knee_flexion_r/accel	/jointset/knee_r/knee_adduction_r/accel	/jointset/knee_r/knee_rotation_r/accel	/jointset/ankle_r/ankle_angle_r/accel	/jointset/subtalar_r/subtalar_angle_r/accel	gamma_cid13_p0	gamma_cid14_p0	gamma_cid14_p1	gamma_cid14_p2	gamma_cid14_p3	gamma_cid14_p4	gamma_cid14_p5
1.5	-0.1224120250775178	0.06026898553637958	0.865539788883557	0.6935641038191818	-0.2421978762109452	-0.1192440582006602	-0.2749242950697981	0.6655966675869376	0.6655966675868535	0.07877195652910833	0.1745317650959657	0.2594113811681323	0.03905094374642099	0.2671514425928039	0.127143787658021	0.3464862242012088	-1.535035949092482	0.04235294744954747	-0.3935630316468711	0.6966280139683029	-1.804096513990694	-1.804096513990486	0.15726659889853	2.298397466381318e-05	-0.6193599412754618	-0.1050744563149289	-0.07234247022771173	-0.01913068317414473	0.01099357940912397	-0.3215904420788904	0.04880185766042545	-0.01435988438100859	0.1256890207796339	-33.26637630478587	-26.01120272163868	-6.526939063023765	-3.369894920770848	4.711660140056749	-659.6006312394641	56.76228876933398	0.09642439082086059	0.2466794424834733	-0.4802617128192291	-0.6773289970994857	0.1095542648945816	-0.2950301233827479	1.144769699201915	-0.9943557867835029	-0.9943557867835232	0.4869839484836752	-0.03254513146294696	-0.4930695362566875	0.05954244154542233	1.246987001462117e-07	2.53573851323326e-08	-1.541237200837603e-06	4.891429077374794e-07	1.50355846851934e-07	7.619903051765122e-08	-1.051878422244716e-06
1.51	-0.1197361344939427	0.06155258145321226	0.8689799002035699	0.6781818987861775	-0.241769488362281	-0.1231952616088009	-0.2679016329549735	0.6475084778609769	0.647508477860931	0.08036956116698828	0.1745320020072935	0.253193789138648	0.03800250618780639	0.2679882536735151	0.1295550368361875	0.3414664676957068	-1.541193953939723	0.04332159611284363	-0.396649211784444	0.7078065155363633	-1.813287707843257	-1.81328770784319	0.1622507434588023	2.155101964051177e-05	-0.6240702590006831	-0.1045971618896313	-0.06671399089978554	-0.02103486277726772	0.01044560652630365	-0.318447963242579	0.05277875121830004	-0.01558875583073423	0.1205029191546694	-34.2274536306977	-24.62995558852177	-6.722473079971352	-3.448740225227698	4.250004117523858	-656.4758692845949	56.66986830007991	0.07154973067241373	0.2353257094920224	-0.5232519435633457	-0.5533678288211861	0.08999921781098291	-0.3109750893357285	1.089706366759415	-0.8434698086429328	-0.8434698086641792	0.5033798916074836	0.0157101764288257	-0.446749967627562	0.04401014341325595	1.31919084169835e-07	2.655920357745639e-08	-1.61358567472206e-06	5.140950798567746e-07	1.563416351807444e-07	8.033026650000747e-08	-1.093959176815748e-06
1.52	-0.117053027746769	0.06285968547262827	0.8723677300936981	0.6627444473846432	-0.2413315182168396	-0.1271764394443885	-0.2607701226282376	0.629335982471668	0.629335982471649	0.08201685728685555	0.1745321550998562	0.2469317465165165	0.03695927901352267	0.2685946753132792	0.1318454081746849	0.3360299382242435	-1.546085222798357	0.04426940680668829	-0.399557917137661	0.7183976563504779	-1.820957646661833	-1.820957646661908	0.1672048952914126	6.220222650573283e-06	-0.6282500598048131	-0.10403237944868	-0.06108551157183429	-0.02293904238036287	0.009897633643391777	-0.3153054844062583	0.05675564477618389	-0.01681762728041884	0.1153168175297221	-35.15695187748396	-23.25732882103034	-6.915294391475701	-3.53284083717244	3.791456291105785	-653.4939382429588	56.63477037474891	0.05034650263146088	0.2225038745495673	-0.563616306011488	-0.4239817993779408	0.1053866710043054	-0.259535166511555	1.027297548412755	-0.6901047799863694	-0.6901047799863769	0.4809854029512355	-0.03532469985631483	-0.3869661520384663	0.07704004467614853	1.389861501585653e-07	2.671558893183646e-08	-1.6887569539321e-06	5.342123829730607e-07	1.63074284988958e-07	8.338102597584333e-08	-1.134621660406668e-06
1.53	-0.1143650268556116	0.06418905367352795	0.8756991569282596	0.6472645039515555	-0.2408842219626985	-0.1311859219822793	-0.2535357629044525	0.6110945325414104	0.6110945325413886	0.08371356235775396	0.1745322309900182	0.2406306020267612	0.03592209385707745	0.26896733971839	0.1340040427534868	0.3301909284503601	-1.549683348988339	0.04518472250689599	-0.4023062338929562	0.7283604882879219	-1.82706381479184	-1.827063814791771	0.1721310238679298	6.869179130313831e-06	-0.631884780433567	-0.1033904478832162	-0.05532295315157405	-0.02499491386516179	0.009303445234251513	-0.3123178341606496	0.06097610515491548	-0.01815323123759678	0.110030055181803	-36.05007711642887	-21.81633058764241	-7.145986507496171	-3.606919180213267	3.309970355262329	-650.5841043379193	56.56885452882717	0.02500490819007018	0.2089497875331755	-0.6037010882469569	-0.294708432173635	0.08375250833225757	-0.2774432977905532	0.963705998808068	-0.5306240572732471	-0.530624057251559	0.4974286114833057	0.01753487749498335	-0.3375820365706078	0.05968232328775327	1.458903157352215e-07	2.576120162730133e-08	-1.76692746380057e-06	5.491926377736499e-07	1.706004751190375e-07	8.528377916350128e-08	-1.17377723108122e-06
1.54	-0.1116744436206585	0.06553928952781309	0.8789702621100481	0.6317551831758944	-0.2404279428538019	-0.1352218803612677	-0.2462051888648131	0.5928000706843088	0.592800070684274	0.08545932911974409	0.1745322684065564	0.2342959389270626	0.03489171053844787	0.2691111440730747	0.1360189388517778	0.3239656076695953	-1.551960691312936	0.04606597775922731	-0.4048530853583305	0.7376405195212816	-1.831560032032461	-1.831560032032247	0.1770172335036992	-1.474500595071715e-06	-0.6349537817933919	-0.1026720118855016	-0.0495603947312916	-0.02705078534993169	0.008709256824996405	-0.3093301839150305	0.06519656553365671	-0.01948883519473238	0.1047432928338983	-36.90200634280623	-20.38471271740814	-7.374013146420495	-3.686343403771697	2.832547704361737	-647.8300962726473	56.56319341240224	0.004574492546284652	0.1937561784473237	-0.6408785073878144	-0.1598250263009181	0.09857458142904964	-0.2192421085273467	0.8907374075959372	-0.3681146021090612	-0.3681146021090627	0.4730016148016319	-0.03712322709735839	-0.2738222982527579	0.09234093112630452	1.523663447863466e-07	2.434284863045477e-08	-1.839301820918452e-06	5.61161484734167e-07	1.777340259248775e-07	8.605790758790485e-08	-1.207596091789973e-06
1.55	-0.1089836000134812	0.06690891647966131	0.8821772407483557	0.6162297873896593	-0.2399630512541552	-0.1392823873430667	-0.2387853296894184	0.5744688047219453	0.5744688047219227	0.087253752839174	0.1745322848249231	0.2279334424890302	0.03386887272060724	0.2690189146083199	0.1378781297222667	0.3173720006731727	-1.552889979208162	0.0469056712146084	-0.4072107099810598	0.7462033426256474	-1.834413528970568	-1.83441352897058	0.1818599587580264	1.366698171915128e-06	-0.6374476265104901	-0.1018827000710299	-0.04369690647581195	-0.02928842673666279	0.008065329783421716	-0.3064793653124105	0.06959562230007899	-0.02089440454452437	0.09939063378039131	-37.70789815902842	-18.90754498295409	-7.625073618797393	-3.761383140682537	2.350947048820009	-645.2040326967101	56.56033909890503	-0.02191862498110916	0.1777898972354701	-0.6773026457169146	-0.0252060249556048	0.07556575149363046	-0.23819110775466	0.8198588222458959	-0.2020548539150674	-0.2020548539490226	0.4885226165832807	0.0185750542207614	-0.2224477642992802	0.07391734286310533	1.583490861015337e-07	2.238992646637985e-08	-1.90499800204109e-06	5.696606661398188e-07	1.844151879440938e-07	8.553166400247192e-08	-1.235266134494655e-06
